<?xml version="1.0" standalone="no"?><!DOCTYPE svg PUBLIC "-//W3C//DTD SVG 1.1//EN" "http://www.w3.org/Graphics/SVG/1.1/DTD/svg11.dtd"><svg class="icon" width="200px" height="200.00px" viewBox="0 0 1024 1024" version="1.1" xmlns="http://www.w3.org/2000/svg"><path d="M412.8 331.2c-8 0-14.4-6.4-14.4-14.4v-13.6c0-8 6.4-14.4 14.4-14.4h200.8c8 0 14.4 6.4 14.4 14.4v13.6c0 8-6.4 14.4-14.4 14.4h-200.8zM308 693.2h402.4v170H308z" fill="#FFD552" /><path d="M801.2 1024H222.8V531.2h578.4V1024z m-566-12.4h553.2V544H235.2v467.6z" fill="#4A555F" /><path d="M250 558.4v438h524V558.4h-524z m481.2 326c0 8.8-3.6 16.4-9.2 22-5.6 5.6-13.6 9.2-22 9.2H318.4c-17.2 0-31.2-14-31.2-31.2v-212c0-8.8 3.6-16.4 9.2-22.4 5.6-5.6 13.6-9.2 22-9.2H700c17.2 0 31.2 14 31.2 31.2v212.4z" fill="#F68F6F" /><path d="M875.2 699.6h-86.8v-168.4h86.8c46.4 0 84 37.6 84 84s-37.2 84.4-84 84.4z m-74-12.4h74c39.6 0 71.6-32 71.6-71.6 0-39.6-32-71.6-71.6-71.6h-74v143.2z" fill="#4A555F" /><path d="M816 672.4v-114h59.6c31.2 0 56.8 25.6 56.8 56.8s-25.6 56.8-56.8 56.8H816z" fill="#71CDE1" /><path d="M621.6 483.6h-219.2c-42.4 0-76.8-34.4-76.8-76.8V271.6c0-42.4 34.4-76.8 76.8-76.8h219.2c42.4 0 76.8 34.4 76.8 76.8v135.2c-0.4 42.4-34.8 76.8-76.8 76.8z m-219.2-276c-35.2 0-64 28.8-64 64v135.2c0 35.2 28.8 64 64 64h219.2c35.2 0 64-28.8 64-64V271.6c0-35.2-28.8-64-64-64h-219.2z" fill="#4A555F" /><path d="M621.6 222.4h-219.2c-27.2 0-49.2 22-49.2 49.2v135.2c0 27.2 22 49.2 49.2 49.2h219.2c27.2 0 49.2-22 49.2-49.2V271.6c0-27.2-22-49.2-49.2-49.2z m27.2 94.4c0 19.6-15.6 35.2-35.2 35.2h-200.8c-19.6 0-35.2-15.6-35.2-35.2v-13.6c0-19.6 15.6-35.2 35.2-35.2h200.8c19.6 0 35.2 15.6 35.2 35.2v13.6z" fill="#71CDE1" /><path d="M543.6 544h-63.2v-72.8h63.2V544z m-50.4-12.8h38v-47.6h-38v47.6zM908 898.4l-52.4-211.2h20c12 0 24.4-3.2 34.8-9.2l7.2-4 52 208.8-61.6 15.6z m-36.4-198.8l45.6 183.2 36.8-9.2-45.2-181.2c-10.4 4.8-22 7.2-33.6 7.2h-3.6zM613.6 358.4h-200.8c-22.8 0-41.6-18.8-41.6-41.6v-13.6c0-22.8 18.8-41.6 41.6-41.6h200.8c22.8 0 41.6 18.8 41.6 41.6v13.6c0 23.2-18.8 41.6-41.6 41.6z m-200.8-83.6c-16 0-28.8 12.8-28.8 28.8v13.6c0 16 12.8 28.8 28.8 28.8h200.8c16 0 28.8-12.8 28.8-28.8v-13.6c0-16-12.8-28.8-28.8-28.8h-200.8z" fill="#4A555F" /><path d="M897.2 961.6l-10.4-42.4 22-34 26.8-6.8 26.8-6.8 35.6 20 10.4 42.4-12.4 3.2-9.2-37.2-26-14.8-22.4 5.6-21.6 5.2-16.4 25.6 9.2 36.8zM235.2 699.6H148.4c-46.4 0-84-37.6-84-84s37.6-84 84-84h86.8v168zM148.4 544c-39.6 0-71.6 32-71.6 71.6 0 39.6 32 71.6 71.6 71.6h74V544H148.4z" fill="#4A555F" /><path d="M148.4 672.4c-31.2 0-56.8-25.6-56.8-56.8s25.6-56.8 56.8-56.8H208v114H148.4z" fill="#71CDE1" /><path d="M116 898.4l-61.2-15.2 52-208.8 7.2 4c10.4 6 22.8 9.2 34.8 9.2h20L116 898.4z m-46-24.8l36.8 9.2 45.6-183.2h-3.6c-11.6 0-23.2-2.4-33.6-7.2l-45.2 181.2z" fill="#4A555F" /><path d="M126.8 961.6l-12.4-3.2 9.2-36.8-16.4-25.6-21.6-5.2-22.4-5.6-26 14.8-9.2 37.2-12.4-3.2 10.4-42.4 35.6-20 26.8 6.8 26.8 6.8 22 34zM548.4 155.6h-72.8v-36.4c0-20 16.4-36.4 36.4-36.4s36.4 16.4 36.4 36.4v36.4zM488 142.8h48v-24c0-13.2-10.8-24-24-24s-24 10.8-24 24v24z" fill="#4A555F" /><path d="M505.6 149.2h12.4v52.4h-12.4zM384.8 726.8h12.4V828h-12.4z" fill="#4A555F" /><path d="M339.6 720.8h103.6v12.4H339.6zM643.2 726.8h12.4V828h-12.4z" fill="#4A555F" /><path d="M597.6 720.8h103.6v12.4h-103.6zM563.728 722.56l8.768 8.768-101.228 101.284-8.768-8.764z" fill="#4A555F" /><path d="M471.464 722.528l101.2 101.312-8.772 8.764-101.2-101.312zM333.2 812.4h12.4v16h-12.4zM438 268.4h12.4v84h-12.4zM576.4 268.4h12.4v84h-12.4zM129.1 690.64l12.024 3.024-48.308 192.428-12.028-3.02zM895.02 692.024l48.156 191.224-12.024 3.028-48.16-191.224zM505.6 477.6h12.4v60h-12.4z" fill="#4A555F" /><path d="M737.6 890.8H280.8v-224.8h456.8v224.8z m-444.4-12.8h431.6v-199.6H293.2v199.6z" fill="#4A555F" /><path d="M737.6 678.8H280.8v-6.4c0-20.8 16.8-37.6 37.6-37.6H700c20.8 0 37.6 16.8 37.6 37.6v6.4z m-443.6-12.8H724c-2.8-10.8-12.8-18.8-24.4-18.8H318.4c-11.6 0-21.6 8-24.4 18.8zM699.6 922H318.4c-20.8 0-37.6-16.8-37.6-37.6v-6.4h456.8v6.4c0 20.8-17.2 37.6-38 37.6z m-405.6-31.2c2.8 10.8 12.8 18.8 24.4 18.8H700c11.6 0 21.6-8 24.4-18.8H294z" fill="#4A555F" /><path d="M333.2 641.2h12.4v31.2h-12.4zM390 641.2h12.4v31.2h-12.4zM446.4 641.2h12.4v31.2h-12.4zM503.2 641.2h12.4v31.2h-12.4zM560 641.2h12.4v31.2H560zM616.8 641.2h12.4v31.2h-12.4zM673.6 641.2h12.4v31.2h-12.4zM333.2 884.4h12.4v31.2h-12.4zM390 884.4h12.4v31.2h-12.4zM446.4 884.4h12.4v31.2h-12.4zM503.2 884.4h12.4v31.2h-12.4zM560 884.4h12.4v31.2H560zM616.8 884.4h12.4v31.2h-12.4zM673.6 884.4h12.4v31.2h-12.4zM505.6 0h12.4v40h-12.4z" fill="#4A555F" /><path d="M606.456 20.428l9.64 7.8-25.16 31.096-9.64-7.8z" fill="#4A555F" /><path d="M418.484 20.432l25.16 31.096-9.64 7.8-25.16-31.096z" fill="#4A555F" /></svg>